<?xml version="1.0" encoding="utf-8"?>
<!-- Generator: Adobe Illustrator 25.4.1, SVG Export Plug-In . SVG Version: 6.00 Build 0)  -->
<svg version="1.1" id="图层_1" xmlns="http://www.w3.org/2000/svg" xmlns:xlink="http://www.w3.org/1999/xlink" x="0px" y="0px"
	 viewBox="0 0 851 1785" style="enable-background:new 0 0 851 1785;" xml:space="preserve">
<style type="text/css">
	.st0{fill:#FFFFFF;}
	.st1{fill:#BDBDBD;}
	.st2{fill:#F7F8F7;}
	.st3{font-family:'HarmonyOS_Sans_SC_Bold';}
	.st4{font-size:36px;}
	.st5{font-family:'HarmonyOS_Sans_SC_Light';}
	.st6{font-size:26px;}
	.st7{fill:#FFFFFE;stroke:#000001;stroke-miterlimit:10;}
	.st8{fill:#FFFFFE;stroke:#000001;stroke-linejoin:round;stroke-miterlimit:10;}
	.st9{fill:none;stroke:#000001;stroke-miterlimit:10;}
	.st10{fill:#FFFFFE;}
	.st11{fill:#FFFFFE;stroke:#000001;stroke-width:1.018;stroke-miterlimit:10;}
	.st12{fill:none;stroke:#000000;stroke-width:1.018;stroke-miterlimit:10;}
	.st13{fill:#FFFFFE;stroke:#000001;stroke-width:0.9935;stroke-miterlimit:10;}
</style>
<g>
	<rect x="1.5" y="1.5" class="st0" width="349" height="99"/>
	<path class="st1" d="M350,2v98H2V2H350 M351,1H1v100h350V1L351,1z"/>
</g>
<g>
	<rect x="350.5" y="1.5" class="st0" width="499" height="99"/>
	<path class="st1" d="M849,2v98H351V2H849 M850,1H350v100h500V1L850,1z"/>
</g>
<g>
	<rect x="1.5" y="100.5" class="st0" width="349" height="99"/>
	<path class="st1" d="M350,101v98H2v-98H350 M351,100H1v100h350V100L351,100z"/>
</g>
<g>
	<rect x="350.5" y="100.5" class="st0" width="499" height="99"/>
	<path class="st1" d="M849,101v98H351v-98H849 M850,100H350v100h500V100L850,100z"/>
</g>
<g>
	<rect x="1.5" y="199.5" class="st2" width="349" height="99"/>
	<path class="st1" d="M350,200v98H2v-98H350 M351,199H1v100h350V199L351,199z"/>
</g>
<g>
	<rect x="350.5" y="199.5" class="st2" width="499" height="99"/>
	<path class="st1" d="M849,200v98H351v-98H849 M850,199H350v100h500V199L850,199z"/>
</g>
<g>
	<rect x="1.5" y="298.5" class="st0" width="349" height="99"/>
	<path class="st1" d="M350,299v98H2v-98H350 M351,298H1v100h350V298L351,298z"/>
</g>
<g>
	<rect x="350.5" y="298.5" class="st0" width="499" height="99"/>
	<path class="st1" d="M849,299v98H351v-98H849 M850,298H350v100h500V298L850,298z"/>
</g>
<g>
	<rect x="1.5" y="397.5" class="st2" width="349" height="99"/>
	<path class="st1" d="M350,398v98H2v-98H350 M351,397H1v100h350V397L351,397z"/>
</g>
<g>
	<rect x="350.5" y="397.5" class="st2" width="499" height="99"/>
	<path class="st1" d="M849,398v98H351v-98H849 M850,397H350v100h500V397L850,397z"/>
</g>
<g>
	<rect x="1.5" y="496.5" class="st0" width="349" height="99"/>
	<path class="st1" d="M350,497v98H2v-98H350 M351,496H1v100h350V496L351,496z"/>
</g>
<g>
	<rect x="350.5" y="496.5" class="st0" width="499" height="99"/>
	<path class="st1" d="M849,497v98H351v-98H849 M850,496H350v100h500V496L850,496z"/>
</g>
<g>
	<rect x="1.5" y="595.5" class="st2" width="349" height="99"/>
	<path class="st1" d="M350,596v98H2v-98H350 M351,595H1v100h350V595L351,595z"/>
</g>
<g>
	<rect x="350.5" y="595.5" class="st2" width="499" height="99"/>
	<path class="st1" d="M849,596v98H351v-98H849 M850,595H350v100h500V595L850,595z"/>
</g>
<g>
	<rect x="1.5" y="694.5" class="st0" width="349" height="99"/>
	<path class="st1" d="M350,695v98H2v-98H350 M351,694H1v100h350V694L351,694z"/>
</g>
<g>
	<rect x="350.5" y="694.5" class="st0" width="499" height="99"/>
	<path class="st1" d="M849,695v98H351v-98H849 M850,694H350v100h500V694L850,694z"/>
</g>
<g>
	<rect x="1.5" y="793.5" class="st2" width="349" height="99"/>
	<path class="st1" d="M350,794v98H2v-98H350 M351,793H1v100h350V793L351,793z"/>
</g>
<g>
	<rect x="350.5" y="793.5" class="st2" width="499" height="99"/>
	<path class="st1" d="M849,794v98H351v-98H849 M850,793H350v100h500V793L850,793z"/>
</g>
<g>
	<rect x="1.5" y="892.5" class="st0" width="349" height="99"/>
	<path class="st1" d="M350,893v98H2v-98H350 M351,892H1v100h350V892L351,892z"/>
</g>
<g>
	<rect x="350.5" y="892.5" class="st0" width="499" height="99"/>
	<path class="st1" d="M849,893v98H351v-98H849 M850,892H350v100h500V892L850,892z"/>
</g>
<g>
	<rect x="1.5" y="991.5" class="st2" width="349" height="99"/>
	<path class="st1" d="M350,992v98H2v-98H350 M351,991H1v100h350V991L351,991z"/>
</g>
<g>
	<rect x="350.5" y="991.5" class="st2" width="499" height="99"/>
	<path class="st1" d="M849,992v98H351v-98H849 M850,991H350v100h500V991L850,991z"/>
</g>
<g>
	<rect x="1.5" y="1090.5" class="st0" width="349" height="99"/>
	<path class="st1" d="M350,1091v98H2v-98H350 M351,1090H1v100h350V1090L351,1090z"/>
</g>
<g>
	<rect x="350.5" y="1090.5" class="st0" width="499" height="99"/>
	<path class="st1" d="M849,1091v98H351v-98H849 M850,1090H350v100h500V1090L850,1090z"/>
</g>
<g>
	<rect x="1.5" y="1189.5" class="st2" width="349" height="99"/>
	<path class="st1" d="M350,1190v98H2v-98H350 M351,1189H1v100h350V1189L351,1189z"/>
</g>
<g>
	<rect x="350.5" y="1189.5" class="st2" width="499" height="99"/>
	<path class="st1" d="M849,1190v98H351v-98H849 M850,1189H350v100h500V1189L850,1189z"/>
</g>
<g>
	<rect x="1.5" y="1288.5" class="st0" width="349" height="99"/>
	<path class="st1" d="M350,1289v98H2v-98H350 M351,1288H1v100h350V1288L351,1288z"/>
</g>
<g>
	<rect x="350.5" y="1288.5" class="st0" width="499" height="99"/>
	<path class="st1" d="M849,1289v98H351v-98H849 M850,1288H350v100h500V1288L850,1288z"/>
</g>
<g>
	<rect x="1.5" y="1387.5" class="st2" width="349" height="99"/>
	<path class="st1" d="M350,1388v98H2v-98H350 M351,1387H1v100h350V1387L351,1387z"/>
</g>
<g>
	<rect x="350.5" y="1387.5" class="st2" width="499" height="99"/>
	<path class="st1" d="M849,1388v98H351v-98H849 M850,1387H350v100h500V1387L850,1387z"/>
</g>
<g>
	<rect x="1.5" y="1486.5" class="st0" width="349" height="99"/>
	<path class="st1" d="M350,1487v98H2v-98H350 M351,1486H1v100h350V1486L351,1486z"/>
</g>
<g>
	<rect x="350.5" y="1486.5" class="st0" width="499" height="99"/>
	<path class="st1" d="M849,1487v98H351v-98H849 M850,1486H350v100h500V1486L850,1486z"/>
</g>
<g>
	<rect x="1.5" y="1585.5" class="st2" width="349" height="99"/>
	<path class="st1" d="M350,1586v98H2v-98H350 M351,1585H1v100h350V1585L351,1585z"/>
</g>
<g>
	<rect x="350.5" y="1585.5" class="st2" width="499" height="99"/>
	<path class="st1" d="M849,1586v98H351v-98H849 M850,1585H350v100h500V1585L850,1585z"/>
</g>
<g>
	<rect x="1.5" y="1684.5" class="st0" width="349" height="99"/>
	<path class="st1" d="M350,1685v98H2v-98H350 M351,1684H1v100h350V1684L351,1684z"/>
</g>
<g>
	<rect x="350.5" y="1684.5" class="st0" width="499" height="99"/>
	<path class="st1" d="M849,1685v98H351v-98H849 M850,1684H350v100h500V1684L850,1684z"/>
</g>
<text transform="matrix(1 0 0 1 104 67)" class="st3 st4">光标状态</text>
<text transform="matrix(1 0 0 1 564 67.2593)" class="st3 st4">示例</text>
<text transform="matrix(1 0 0 1 123.9999 161.5186)" class="st5 st6">正常选择</text>
<text transform="matrix(1 0 0 1 123.9999 260.6458)" class="st5 st6">帮助选择</text>
<text transform="matrix(1 0 0 1 123.9999 359.7732)" class="st5 st6">后台运行</text>
<text transform="matrix(1 0 0 1 162.9999 458.9005)" class="st5 st6">忙</text>
<text transform="matrix(1 0 0 1 123.9999 558.0278)" class="st5 st6">精确选择</text>
<text transform="matrix(1 0 0 1 123.9999 657.1551)" class="st5 st6">文本选择</text>
<text transform="matrix(1 0 0 1 149.9999 756.2823)" class="st5 st6">手写</text>
<text transform="matrix(1 0 0 1 136.9999 855.4097)" class="st5 st6">不可用</text>
<text transform="matrix(1 0 0 1 97.9999 954.5372)" class="st5 st6">垂直调整大小</text>
<text transform="matrix(1 0 0 1 97.9999 1053.6646)" class="st5 st6">水平调整大小</text>
<text transform="matrix(1 0 0 1 61.3012 1152.7919)" class="st5 st6">沿对角线调整大小 1</text>
<text transform="matrix(1 0 0 1 61.3012 1251.9192)" class="st5 st6">沿对角线调整大小 2</text>
<text transform="matrix(1 0 0 1 149.9999 1351.0465)" class="st5 st6">移动</text>
<text transform="matrix(1 0 0 1 149.9999 1450.1737)" class="st5 st6">候选</text>
<text transform="matrix(1 0 0 1 123.9999 1549.301)" class="st5 st6">链接选择</text>
<text transform="matrix(1 0 0 1 58.9999 1648.4283)" class="st5 st6">位置选择（不常用）</text>
<text transform="matrix(1 0 0 1 58.9999 1747.5557)" class="st5 st6">个人选择（不常用）</text>
<polygon class="st7" points="583.2,175.01 593.7,164.81 598.2,177.71 607.5,174.71 602.7,160.01 616.8,159.71 583.2,126.41 "/>
<g>
	<path class="st8" d="M618.6,269.65c0-0.3-0.3-0.6-0.3-1.2c0-0.6,0-0.9,0-1.2c0-0.6,0-1.2,0.3-1.8c0-0.6,0.3-0.9,0.6-1.5
		c0.3-0.6,0.6-0.9,0.9-1.2c0.3-0.3,0.9-0.9,1.2-1.2c0.6-0.3,0.9-0.9,1.2-1.2c0.3-0.3,0.6-0.6,0.9-1.2c0.3-0.3,0.6-0.9,0.6-1.2
		c0-0.3,0.3-0.9,0.3-1.2c0-0.3,0-0.9-0.3-1.2s-0.3-0.6-0.6-0.9c-0.3-0.3-0.6-0.6-0.9-0.6s-0.9-0.3-1.2-0.3c-1.2,0-2.1,0.3-3.3,0.6
		s-2.1,1.2-3.3,2.1v-6c0.9-0.6,2.1-1.2,3.3-1.5s2.4-0.6,3.9-0.6c1.2,0,2.4,0,3.6,0.3s2.1,0.6,2.7,1.2c0.9,0.6,1.5,1.5,1.8,2.4
		s0.6,2.1,0.6,3.3c0,0.9,0,1.5-0.3,2.1c-0.3,0.6-0.6,1.2-0.9,1.8c-0.3,0.6-0.9,1.2-1.5,1.8c-0.6,0.6-1.2,1.2-1.8,1.8
		c-0.6,0.3-0.9,0.9-1.2,1.2c-0.3,0.3-0.6,0.6-0.9,0.9c-0.3,0.3-0.3,0.6-0.6,1.2c0,0.3-0.3,0.9-0.3,1.2c0,0.3,0,0.6,0,0.9
		c0,0.3,0.3,0.6,0.3,0.9C623.7,269.65,618.6,269.65,618.6,269.65z M621.6,280.45c-1.2,0-2.1-0.3-2.7-0.9c-0.6-0.6-1.2-1.5-1.2-2.4
		s0.3-1.8,1.2-2.4c0.6-0.6,1.5-0.9,2.7-0.9c1.2,0,2.1,0.3,2.7,0.9c0.6,0.6,1.2,1.5,1.2,2.4s-0.3,1.8-0.9,2.4
		C623.4,280.15,622.5,280.45,621.6,280.45z"/>
	<polygon class="st7" points="569.4,218.35 569.4,265.75 579.3,255.85 586.2,269.95 594.9,265.45 588.9,253.15 603.6,253.15 	"/>
</g>
<g>
	<rect x="605.55" y="328.29" class="st7" width="30" height="6"/>
	<rect x="605.55" y="370.29" class="st7" width="30" height="6"/>
	<polygon class="st7" points="614.55,355.29 608.55,361.29 608.55,370.29 632.55,370.29 632.55,361.29 626.55,355.29 626.55,349.29 
		632.55,343.29 632.55,334.29 608.55,334.29 608.55,343.29 614.55,349.29 	"/>
	<line class="st9" x1="616.05" y1="340.29" x2="613.05" y2="340.29"/>
	<line class="st9" x1="619.05" y1="343.29" x2="616.05" y2="343.29"/>
	<line class="st9" x1="622.05" y1="346.29" x2="619.05" y2="346.29"/>
	<line class="st9" x1="622.05" y1="352.29" x2="619.05" y2="352.29"/>
	<line class="st9" x1="622.05" y1="361.29" x2="619.05" y2="361.29"/>
	<line class="st9" x1="619.05" y1="364.29" x2="616.05" y2="364.29"/>
	<line class="st9" x1="625.05" y1="364.29" x2="622.05" y2="364.29"/>
	<line class="st9" x1="628.05" y1="367.29" x2="625.05" y2="367.29"/>
	<line class="st9" x1="616.05" y1="367.29" x2="613.05" y2="367.29"/>
	<line class="st9" x1="622.05" y1="367.29" x2="619.05" y2="367.29"/>
	<line class="st9" x1="622.05" y1="340.29" x2="619.05" y2="340.29"/>
	<line class="st9" x1="628.05" y1="340.29" x2="625.05" y2="340.29"/>
	<polygon class="st7" points="564.45,322.29 564.45,369.69 574.35,359.79 581.25,373.59 589.95,369.39 583.95,356.79 598.65,356.79 
			"/>
</g>
<g>
	<polygon class="st10" points="582,477.22 618,477.22 618,465.22 606,453.22 606,447.22 618,435.22 618,420.22 582,420.22 
		582,435.22 594,447.22 594,453.22 582,465.22 	"/>
	<polyline class="st9" points="618,477.22 618,465.22 606,453.22 606,447.22 618,435.22 618,420.22 	"/>
	<polyline class="st9" points="582,420.22 582,435.22 594,447.22 594,453.22 582,465.22 582,477.22 	"/>
	<rect x="579" y="414.22" class="st7" width="42" height="6"/>
	<rect x="579" y="477.22" class="st7" width="42" height="6"/>
	<line class="st9" x1="598.5" y1="444.22" x2="601.5" y2="444.22"/>
	<line class="st9" x1="601.5" y1="441.22" x2="604.5" y2="441.22"/>
	<line class="st9" x1="601.5" y1="435.22" x2="604.5" y2="435.22"/>
	<line class="st9" x1="595.5" y1="435.22" x2="598.5" y2="435.22"/>
	<line class="st9" x1="598.5" y1="432.22" x2="601.5" y2="432.22"/>
	<line class="st9" x1="592.5" y1="432.22" x2="595.5" y2="432.22"/>
	<line class="st9" x1="595.5" y1="429.22" x2="598.5" y2="429.22"/>
	<line class="st9" x1="601.5" y1="429.22" x2="604.5" y2="429.22"/>
	<line class="st9" x1="604.5" y1="432.22" x2="607.5" y2="432.22"/>
	<line class="st9" x1="607.5" y1="429.22" x2="610.5" y2="429.22"/>
	<line class="st9" x1="610.5" y1="426.22" x2="613.5" y2="426.22"/>
	<line class="st9" x1="604.5" y1="426.22" x2="607.5" y2="426.22"/>
	<line class="st9" x1="598.5" y1="426.22" x2="601.5" y2="426.22"/>
	<line class="st9" x1="592.5" y1="426.22" x2="595.5" y2="426.22"/>
	<line class="st9" x1="589.5" y1="429.22" x2="592.5" y2="429.22"/>
	<line class="st9" x1="586.5" y1="426.22" x2="589.5" y2="426.22"/>
	<line class="st9" x1="586.5" y1="471.22" x2="589.5" y2="471.22"/>
	<line class="st9" x1="592.5" y1="471.22" x2="595.5" y2="471.22"/>
	<line class="st9" x1="598.5" y1="471.22" x2="601.5" y2="471.22"/>
	<line class="st9" x1="604.5" y1="471.22" x2="607.5" y2="471.22"/>
	<line class="st9" x1="610.5" y1="471.22" x2="613.5" y2="471.22"/>
	<line class="st9" x1="589.5" y1="468.22" x2="592.5" y2="468.22"/>
	<line class="st9" x1="595.5" y1="468.22" x2="598.5" y2="468.22"/>
	<line class="st9" x1="601.5" y1="468.22" x2="604.5" y2="468.22"/>
	<line class="st9" x1="607.5" y1="468.22" x2="610.5" y2="468.22"/>
	<line class="st9" x1="592.5" y1="465.22" x2="595.5" y2="465.22"/>
	<line class="st9" x1="598.5" y1="465.22" x2="601.5" y2="465.22"/>
	<line class="st9" x1="595.5" y1="462.22" x2="598.5" y2="462.22"/>
	<line class="st9" x1="601.5" y1="462.22" x2="604.5" y2="462.22"/>
	<line class="st9" x1="598.5" y1="459.22" x2="601.5" y2="459.22"/>
	<line class="st9" x1="604.5" y1="465.22" x2="607.5" y2="465.22"/>
	<line class="st9" x1="598.5" y1="450.22" x2="601.5" y2="450.22"/>
</g>
<polygon class="st7" points="597,545.16 597,521.16 603,521.16 603,545.16 627,545.16 627,551.16 603,551.16 603,575.16 597,575.16 
	597,551.16 573,551.16 573,545.16 "/>
<polygon class="st7" points="615,625.1 615,619.1 603,619.1 603,620.6 597,620.6 597,619.1 585,619.1 585,625.1 597,625.1 
	597,664.1 585,664.1 585,670.1 597,670.1 597,668.6 603,668.6 603,670.1 615,670.1 615,664.1 603,664.1 603,625.1 "/>
<g>
	<path class="st11" d="M625.46,772.53"/>
	<path class="st11" d="M591.56,727.83l37.8,37.8c0.9,0.9,0.9,2.1,0,2.7l-4.2,4.2l-4.2,4.2c-0.9,0.9-2.1,0.9-2.7,0l-37.5-38.1
		c0,0-9.6-8.4-10.8-21.6C583.16,718.23,591.56,727.83,591.56,727.83z"/>
	<line class="st12" x1="621.56" y1="757.53" x2="610.46" y2="768.63"/>
</g>
<g>
	<path class="st7" d="M600,818.97c-13.2,0-24,10.8-24,24s10.8,24,24,24s24-10.8,24-24S613.2,818.97,600,818.97z M618,842.97
		c0,3.6-1.2,7.2-3,10.2l-25.2-25.2c3-2.1,6.3-3,10.2-3C609.9,824.97,618,833.07,618,842.97z M582,842.97c0-3.9,1.2-7.8,3.6-10.8
		l25.2,25.2c-3,2.1-6.6,3.6-10.8,3.6C590.1,860.97,582,852.87,582,842.97z"/>
</g>
<polygon class="st13" points="596.14,926.33 586.5,926.33 586.5,924.41 600,910.91 613.5,924.41 613.5,926.33 603.86,926.33 
	603.86,961.05 613.5,961.05 613.5,962.98 600,976.48 586.5,962.98 586.5,961.05 596.14,961.05 "/>
<polygon class="st7" points="582.13,1045.71 617.87,1045.71 617.87,1055.64 619.85,1055.64 633.75,1041.74 619.85,1027.84 
	617.87,1027.84 617.87,1037.77 582.13,1037.77 582.13,1027.84 580.15,1027.84 566.25,1041.74 580.15,1055.64 582.13,1055.64 "/>
<polygon class="st7" points="584.9,1247.66 578.04,1240.79 576.67,1242.17 576.67,1261.38 595.88,1261.38 597.25,1260.01 
	590.39,1253.15 615.1,1228.44 621.96,1235.3 623.33,1233.93 623.33,1214.71 604.12,1214.71 602.75,1216.09 609.61,1222.95 "/>
<polygon class="st7" points="582.13,1342.37 582.13,1352.3 580.15,1352.3 566.25,1338.4 580.15,1324.5 582.13,1324.5 
	582.13,1334.43 596.03,1334.43 596.03,1320.53 586.1,1320.53 586.1,1318.55 600,1304.65 613.9,1318.55 613.9,1320.53 
	603.97,1320.53 603.97,1334.43 617.87,1334.43 617.87,1324.5 619.85,1324.5 633.75,1338.4 619.85,1352.3 617.87,1352.3 
	617.87,1342.37 603.97,1342.37 603.97,1356.27 613.9,1356.27 613.9,1358.25 600,1372.15 586.1,1358.25 586.1,1356.27 
	596.03,1356.27 596.03,1342.37 "/>
<polygon class="st7" points="585.6,1427.09 585.6,1424.99 600,1410.59 614.4,1424.99 614.4,1427.09 604.2,1427.09 604.2,1465.79 
	595.8,1465.79 595.8,1427.09 "/>
<g>
	<path class="st7" d="M607.74,1531.42v-12c0,0,0-3.9-3.9-3.9c-3.9,0-3.9,3.9-3.9,3.9v12"/>
	<path class="st7" d="M615.84,1531.42v-9.9c0,0,0-3.9-3.9-3.9s-3.9,3.9-3.9,3.9v9.9"/>
	<path class="st7" d="M599.94,1531.42v-27c0,0,0-3.9-3.9-3.9c-3.9,0-4.2,3.9-4.2,3.9v32.4c0,1.2-1.5,2.1-2.4,1.2l-3.6-3.6
		c-5.1-5.1-8.1-2.1-8.1-2.1c-3.9,3.9,0,8.1,0,8.1l14.1,16.2c6.6,6.3,14.1,6,14.1,6c20.1,0,18-20.1,18-20.1v-19.2c0,0,0-3.9-3.9-3.9
		c-3.9,0-3.9,3.9-3.9,3.9v8.1"/>
</g>
<g>
	<path class="st7" d="M622.84,1639.65c-6.89,0-12.4,5.51-12.4,12.4c0,6.89,12.4,25.35,12.4,25.35s12.4-18.46,12.4-25.35
		C635.24,1645.17,629.46,1639.65,622.84,1639.65z"/>
	<circle cx="622.84" cy="1652.05" r="5.51"/>
	<path class="st7" d="M594.18,1622.84v-11.02c0,0,0-3.58-3.58-3.58s-3.86,3.58-3.86,3.58v11.02"/>
	<path class="st7" d="M601.62,1622.84v-9.37c0,0,0-3.58-3.58-3.58s-3.58,3.58-3.58,3.58v9.09"/>
	<path class="st7" d="M586.74,1622.84v-24.8c0,0,0-3.58-3.58-3.58s-3.86,3.31-3.86,3.31v29.76c0,1.1-1.38,1.93-2.2,1.1l-3.31-3.31
		c-4.68-4.68-7.44-1.93-7.44-1.93c-3.58,3.58,0,7.44,0,7.44l12.95,14.88c6.06,5.79,12.95,5.51,12.95,5.51
		c18.19,0,16.53-18.46,16.53-18.46v-17.36c0,0,0-3.58-3.58-3.58s-3.58,3.58-3.58,3.58v7.44"/>
</g>
<g>
	<path class="st7" d="M592.8,1721.78v-11.02c0,0,0-3.58-3.58-3.58s-3.86,3.58-3.86,3.58v11.02"/>
	<path class="st7" d="M600.24,1721.78v-9.37c0,0,0-3.58-3.58-3.58s-3.58,3.58-3.58,3.58v9.09"/>
	<path class="st7" d="M585.36,1721.78v-24.8c0,0,0-3.58-3.58-3.58s-3.86,3.58-3.86,3.58v29.76c0,1.1-1.38,1.93-2.2,1.1l-3.31-3.31
		c-4.68-4.68-7.44-1.93-7.44-1.93c-3.58,3.58,0,7.44,0,7.44l12.95,14.61c6.06,5.79,12.95,5.51,12.95,5.51
		c18.46,0,16.53-18.46,16.53-18.46v-17.36c0,0,0-3.58-3.58-3.58s-3.58,3.58-3.58,3.58v7.44"/>
	<path class="st7" d="M621.46,1776.89c-12.4,0-15.16-2.76-15.16-2.76c0-8.27,6.89-15.16,15.16-15.16c8.27,0,15.16,6.89,15.16,15.16
		C636.34,1774.14,633.86,1776.89,621.46,1776.89z"/>
	<circle class="st7" cx="621.46" cy="1748.51" r="10.47"/>
</g>
<polygon class="st7" points="609.61,1155.21 602.75,1162.07 604.12,1163.45 623.33,1163.45 623.33,1144.23 621.96,1142.86 
	615.1,1149.72 590.39,1125.01 597.25,1118.15 595.88,1116.78 576.67,1116.78 576.67,1136 578.04,1137.37 584.9,1130.5 "/>
</svg>
